<svg xmlns="http://www.w3.org/2000/svg" viewBox="0 0 192 32"><path fill="#94BE46" d="M24.114 6.083a.304.304 0 0 0-.273-.254c-.11-.01-2.51-.19-2.51-.19L19.48 3.8c-.185-.18-.543-.128-.68-.087L17.864 4c-.56-1.6-1.54-3.074-3.27-3.074-.05 0-.1.002-.148.005-.493-.64-1.103-.93-1.63-.93-4.03 0-5.953 5.04-6.556 7.6l-2.82.88c-.875.28-.903.3-1.018 1.13-.085.61-2.372 18.3-2.372 18.3l17.82 3.34 9.655-2.09s-3.39-22.91-3.41-23.07zm-16.61 1.13c.684-2.332 2.31-6.132 5.204-6.132.174 0 .35.06.517.18-1.292.61-2.676 2.14-3.26 5.2l-2.462.77zm6.81-2.11l-3.115.964c.6-2.314 1.72-3.432 2.7-3.854.25.62.41 1.512.41 2.715v.175zm1.056-.327V4.45c0-.995-.137-1.798-.36-2.434.892.112 1.486 1.126 1.868 2.293l-1.508.46z"/><path fill="#5E8D3E" d="M24.114 6.084c-.02-.157-.16-.244-.273-.254-.11-.01-2.51-.188-2.51-.188l-1.85-1.84a.465.465 0 0 0-.26-.117l-1.34 27.56 9.66-2.09s-3.4-22.915-3.42-23.07z"/><path fill="#FEFEFE" d="M11.08 14.15c1.278 0 2.322.556 2.322.556l1.19-3.54s-.805-.468-2.434-.468c-4.228 0-6.322 2.824-6.322 5.742 0 3.467 3.46 3.56 3.46 5.67 0 .51-.362 1.21-1.248 1.21-1.357 0-2.965-1.38-2.965-1.38l-.82 2.705S5.83 26.55 8.888 26.55c2.55 0 4.44-1.92 4.44-4.9 0-3.79-4.217-4.41-4.217-6.027 0-.297.1-1.474 1.97-1.474z"/><path fill="#010202" d="M38.78 17.804c-.963-.523-1.458-.963-1.458-1.568 0-.77.688-1.265 1.76-1.265 1.25 0 2.367.53 2.367.53l.88-2.69s-.81-.63-3.2-.63c-3.32 0-5.62 1.9-5.62 4.57 0 1.52 1.07 2.67 2.5 3.5 1.15.66 1.56 1.13 1.56 1.82 0 .72-.58 1.3-1.65 1.3-1.6 0-3.11-.822-3.11-.822l-.93 2.698s1.39.938 3.74.938c3.41 0 5.86-1.675 5.86-4.702 0-1.62-1.24-2.78-2.73-3.63zm13.59-5.668c-1.677 0-2.998.798-4.016 2.008l-.055-.028 1.45-7.62h-3.79L42.27 25.89h3.797l1.266-6.63c.495-2.503 1.788-4.043 3-4.043.852 0 1.182.578 1.182 1.403 0 .522-.057 1.155-.167 1.678l-1.43 7.593h3.797l1.49-7.84c.165-.82.275-1.81.275-2.47 0-2.14-1.127-3.44-3.11-3.44zm11.694 0c-4.567 0-7.593 4.127-7.593 8.72 0 2.945 1.82 5.31 5.23 5.31 4.49 0 7.51-4.016 7.51-8.72 0-2.724-1.59-5.31-5.14-5.31zm-1.87 11.115c-1.294 0-1.844-1.1-1.844-2.47 0-2.17 1.128-5.72 3.192-5.72 1.348 0 1.788 1.16 1.788 2.29 0 2.34-1.13 5.92-3.137 5.92zM78.92 12.14c-2.562 0-4.017 2.256-4.017 2.256h-.055l.22-2.036h-3.356a81.22 81.22 0 0 1-.77 5.035L68.3 31.285h3.797l1.045-5.612h.083s.78.496 2.23.496c4.456 0 7.372-4.57 7.372-9.19 0-2.56-1.128-4.84-3.907-4.84zm-3.63 11.17c-.987 0-1.57-.55-1.57-.55l.634-3.55c.44-2.365 1.678-3.933 3-3.933 1.154 0 1.512 1.073 1.512 2.09 0 2.45-1.46 5.943-3.577 5.943zM88.247 6.69c-1.21 0-2.173.962-2.173 2.2 0 1.128.715 1.898 1.788 1.898h.055c1.183 0 2.2-.798 2.23-2.2 0-1.1-.744-1.9-1.9-1.9zm-5.31 19.202h3.797L89.32 12.44h-3.824m13.48-.03h-2.64l.138-.632c.22-1.293.99-2.45 2.256-2.45.676 0 1.21.194 1.21.194l.743-2.97s-.66-.33-2.063-.33c-1.348 0-2.696.384-3.714 1.265-1.293 1.1-1.898 2.696-2.2 4.292l-.11.63h-1.762l-.55 2.86h1.76l-2.008 10.62h3.797l2.008-10.62h2.62l.52-2.86zm5.696 9.273h-.055c-.073-1.05-.936-9.244-.936-9.244H99.7l2.283 12.35c.055.27.028.44-.082.63-.44.85-1.18 1.68-2.06 2.28-.71.52-1.51.85-2.14 1.07L98.73 32c.77-.165 2.365-.798 3.713-2.063 1.733-1.623 3.33-4.127 4.98-7.538l4.65-9.96h-3.963s-2.373 5.98-3.438 9.24zm18.028-9.407c-1.777 0-3.445 1.14-4.64 2.973h-.055l.417-2.7h-1.14a88.893 88.893 0 0 1-.75 4.58l-2.666 14.2h1.195l1.06-5.75h.06c.5.28 1.36.58 2.67.58 4.25 0 7.34-5.06 7.34-9.56 0-2.2-.94-4.34-3.47-4.34zm-3.75 12.837c-1.084 0-1.973-.278-2.584-.75l.86-4.585c.75-4.03 3.224-6.447 5.114-6.447 1.973 0 2.584 1.78 2.584 3.37 0 3.42-2.445 8.42-5.974 8.42zm8.474-3c0 2.39 1.223 4.056 3.25 4.056 1.752 0 3.447-.92 4.975-3.87h.05c-.2 1.5-.36 2.78-.34 3.58h1.16c-.06-1.42.11-3.56.58-6.06l1.41-7.17c-.7-.25-1.76-.39-2.7-.39-5.17 0-8.42 5.28-8.42 9.83zm8.78-3.696c-.638 3.446-3.083 6.697-5.25 6.697-1.807 0-2.307-1.556-2.28-3.307.028-4.196 3.03-8.475 6.863-8.475.834 0 1.306.083 1.612.194l-.95 4.89zm6.586-2.947h-.057c.167-1.166.278-2.055.36-2.916h-1.083a44.318 44.318 0 0 1-.64 4.362l-1.694 8.975h1.195l1.28-6.78c.56-2.91 2.5-5.55 4.25-5.55.2 0 .34 0 .45.03l.25-1.28c-.14 0-.33-.03-.5-.03-1.66 0-3 1.42-3.8 3.2zm8 9.616c-.833 0-1.194-.472-1.194-1.25 0-.723.11-1.417.278-2.306l1.473-7.947h3.14l.222-1.028h-3.14l.58-2.917-1.34.528-.45 2.39h-1.95l-.2 1.028h1.91l-1.5 7.947c-.22 1.03-.31 1.73-.31 2.45 0 1.11.61 2.17 2.2 2.17.47 0 .94-.08 1.3-.19l-.08-.97c-.25.08-.53.11-.975.11zm11.45-12.81c-1.835 0-3.502 1.056-4.67 3h-.055l.39-2.722h-1.14a46.556 46.556 0 0 1-.583 3.918l-1.78 9.42h1.196l1.306-7.085c.583-3.223 3.112-5.446 4.89-5.446 1.64 0 2.195 1 2.195 2.39 0 .7-.09 1.34-.2 1.95l-1.56 8.2h1.19l1.53-8.19c.14-.72.25-1.39.25-2.05 0-2.53-1.67-3.36-2.98-3.36zm11.418 0c-3.807 0-6.502 5.03-6.502 8.864 0 2.556 1.084 5.002 4.196 5.002 1.667 0 2.945-.528 3.64-1l-.36-.945c-.612.36-1.613.89-3.085.89-1.417 0-2.445-.75-2.918-2.252-.28-.972-.25-2.723-.12-3.334 4.36.03 8.25-.91 8.25-4.3 0-1.5-.92-2.92-3.12-2.92zm1.862 2.973c0 2.64-3.334 3.22-6.808 3.19.834-2.89 2.668-5.12 4.724-5.12 1.25 0 2.084.66 2.084 1.89v.02zm9.086-1.67l.25-1.28c-.14 0-.333-.03-.5-.03-1.667 0-3 1.41-3.807 3.19h-.06c.16-1.17.28-2.06.36-2.92h-1.09c-.11 1.16-.31 2.66-.64 4.36l-1.7 8.97h1.19l1.28-6.78c.55-2.92 2.5-5.56 4.25-5.56.19 0 .33 0 .44.02zm5.03-.25c.777 0 1.472.3 1.89.55l.444-1.03c-.39-.31-1.278-.59-2.195-.59-2.362 0-4.057 1.69-4.057 3.78 0 1.25.722 2.44 2.056 3.3 1.25.8 1.806 1.61 1.806 2.94 0 1.52-1.195 2.78-2.945 2.78-.972 0-1.862-.39-2.334-.75l-.47 1c.45.36 1.5.8 2.7.8 2.31 0 4.28-1.47 4.28-4.17 0-1.366-.78-2.588-2.05-3.45-1.08-.75-1.8-1.45-1.8-2.7 0-1.367 1.09-2.5 2.7-2.5z"/></svg>