<svg xmlns="http://www.w3.org/2000/svg" viewBox="0 0 30 30"><path d="M6.3 22.5c-1.4 0-2.7.3-3.9.8C.9 20.8 0 18.1 0 15v-.8c.8 2.6 3 4.4 6.3 4.4h.8c-.2.5-.4 1-.4 1.6 0 .9.5 1.7 1.1 2.4-.5-.1-1-.1-1.5-.1zM15 0C9 0 3.9 3.5 1.4 8.5 2.8 7.1 4.9 6 7.1 6h8.5l-1.9 1.4H11c1.8.7 2.7 2.7 2.7 4.9 0 1.8-.9 3.4-2.4 4.5-1.4 1-1.6 1.5-1.6 2.5 0 .8 1.4 2.1 2.2 2.7 2.3 1.6 3 3 3 5.5 0 .9-.3 1.7-.7 2.5h.6c8.3 0 15-6.7 15-15S23.3 0 15 0zM2.8 12.3c-.4-2.8 1-5.1 3.2-5s4.3 2.4 4.6 5.3c.4 2.8-1.1 5.2-3.3 5.1-2-.1-4.1-2.5-4.5-5.4zm10.1 15.5c0 .7-.1 1.3-.4 1.9-3.7-.7-6.9-2.6-9.2-5.4 1.1-.7 2.5-1 4-1 .8 0 1.4.1 2.1.4 1.8 1.2 3 1.9 3.4 3.3 0 .3.1.6.1.8zm9.5-16.5v3.8h-1.9v-3.8h-3.8V9.4h3.8V5.6h1.9v3.8h3.8v1.9h-3.8z"/></svg>
