<svg xmlns="http://www.w3.org/2000/svg" viewBox="0 0 30 30"><path d="M30 15c0 8.3-6.7 15-15 15S0 23.3 0 15 6.7 0 15 0s15 6.7 15 15zm-3.7-5.5c-.8.3-1.6.6-2.5.7.9-.5 1.5-1.4 1.8-2.4-.8.5-1.7.8-2.7 1-.8-.8-1.9-1.4-3.1-1.4-2.4 0-4.2 1.9-4.2 4.3 0 .3 0 .7.1 1-3.5-.2-6.7-1.9-8.8-4.5-.3.7-.6 1.4-.6 2.2 0 1.5.7 2.8 1.9 3.5-.7 0-1.4-.2-1.9-.5 0 2.1 1.5 3.8 3.4 4.2-.3.1-.7.1-1.1.1-.3 0-.6 0-.8-.1.5 1.7 2.1 2.8 4 2.9-1.5 1.1-3.3 1.9-5.3 1.9-.3 0-.7 0-1-.1 1.9 1.2 4.1 1.9 6.5 1.9 7.8 0 12.1-6.5 12.1-12.1v-.6c.9-.4 1.6-1.2 2.2-2z"/></svg>
