<svg xmlns="http://www.w3.org/2000/svg" viewBox="-234 36 30 30"><path d="M-219 36c-8.3 0-15 6.7-15 15s6.7 15 15 15 15-6.7 15-15-6.7-15-15-15zm9.6 20c-.1.3-.6.7-2.5.9-.1 0-.2.2-.3.6 0 .1-.1.3-.1.4 0 .1-.1.2-.3.2-.1 0-.2 0-.4-.1-.3-.1-.7-.1-1.1-.1-.3 0-.5 0-.8.1-.5.1-1 .4-1.5.8-.7.5-1.4 1-2.6 1h-.2c-1.1 0-1.9-.5-2.6-1-.5-.3-1-.7-1.5-.8-.3 0-.5-.1-.8-.1-.5 0-.8.1-1.1.1-.2 0-.3.1-.4.1-.1 0-.2 0-.3-.2 0-.2-.1-.3-.1-.4-.1-.4-.1-.6-.3-.6-1.8-.3-2.3-.7-2.5-.9v-.1c0-.1.1-.2.2-.2 2.8-.5 4-3.3 4.1-3.4.2-.3.2-.6.1-.9-.2-.5-.8-.7-1.2-.8-.1 0-.2-.1-.3-.1-.8-.3-.9-.7-.9-.8.1-.3.4-.5.8-.5h.2c.4.2.7.3 1 .3.4 0 .6-.2.6-.2v-.6c-.1-1.3-.2-3 .2-3.9 1.3-2.8 3.9-3 4.7-3h.3c.8 0 3.5.2 4.7 3 .4.9.3 2.6.2 3.9v.6s.2.2.5.2.6-.1.9-.3c.1 0 .2-.1.3-.1.1 0 .2 0 .3.1.3.1.5.3.5.5s-.1.5-.9.8c-.1 0-.2.1-.3.1-.4.1-1 .3-1.2.8-.1.2-.1.5.1.9.1.1 1.3 3 4.1 3.4.1 0 .2.1.2.2.3 0 .3.1.2.1z"/></svg>
